<svg width="5" height="9" viewBox="0 0 5 9" fill="none" xmlns="http://www.w3.org/2000/svg">
<g clip-path="url(#clip0_2652_4580)">
<path d="M0 4.49743C0 4.62696 0.0460123 4.74095 0.143149 4.8394L4.19734 8.85498C4.28426 8.94818 4.39672 8.99487 4.52965 8.99487C4.7955 8.99487 5 8.79278 5 8.52334C5 8.38863 4.94377 8.27464 4.86197 8.18655L1.14008 4.49743L4.86197 0.808292C4.94377 0.72021 5 0.601039 5 0.471504C5 0.202074 4.7955 0 4.52965 0C4.39672 0 4.28426 0.0466323 4.19734 0.134716L0.143149 4.15546C0.0460123 4.24872 0 4.36789 0 4.49743Z" fill="black" fill-opacity="0.85"/>
</g>
<defs>
<clipPath id="clip0_2652_4580">
<rect width="5" height="9" fill="white"/>
</clipPath>
</defs>
</svg>
