<svg preserveAspectRatio="none" width="100%" height="100%" overflow="visible" style="display: block;" viewBox="0 0 50 50" fill="none" xmlns="http://www.w3.org/2000/svg">
<g id="user pfp">
<mask id="path-1-inside-1_0_87" fill="white">
<path d="M0 16C0 7.16344 7.16344 0 16 0H34C42.8366 0 50 7.16344 50 16V34C50 42.8366 42.8366 50 34 50H16C7.16344 50 0 42.8366 0 34V16Z"/>
</mask>
<path d="M0 16C0 7.16344 7.16344 0 16 0H34C42.8366 0 50 7.16344 50 16V34C50 42.8366 42.8366 50 34 50H16C7.16344 50 0 42.8366 0 34V16Z" fill="var(--fill-0, #F4F3ED)"/>
<path d="M16 0V2H34V0V-2H16V0ZM50 16H48V34H50H52V16H50ZM34 50V48H16V50V52H34V50ZM0 34H2V16H0H-2V34H0ZM16 50V48C8.26801 48 2 41.732 2 34H0H-2C-2 43.9411 6.05887 52 16 52V50ZM50 34H48C48 41.732 41.732 48 34 48V50V52C43.9411 52 52 43.9411 52 34H50ZM34 0V2C41.732 2 48 8.26801 48 16H50H52C52 6.05887 43.9411 -2 34 -2V0ZM16 0V-2C6.05887 -2 -2 6.05887 -2 16H0H2C2 8.26801 8.26801 2 16 2V0Z" fill="var(--stroke-0, #E2E1DF)" mask="url(#path-1-inside-1_0_87)"/>
<path id="Vector" d="M14.0114 45.8885C14.0114 45.8688 14.0114 45.6033 14.0128 45.1174M14.0128 45.1174C14.0151 44.3172 14.0211 42.9193 14.0372 41.0381M14.0128 45.1174C13.8447 45.3175 13.7308 45.5485 13.7994 45.7372C13.9636 46.1887 16.0115 46.7796 19.7845 46.0666C24.0402 45.2624 27.7315 44.487 30.7081 44.7922C36.0731 45.3424 37.9985 47.0649 38.6127 46.091C39.191 45.1739 39.646 42.7274 39.1017 40.7965C38.7638 39.5979 37.8364 35.8401 35.1531 32.0066C33.2802 29.3309 31.1492 26.474 26.2851 26.2356C23.0039 26.0747 20.8724 26.0182 18.7096 27.6551C16.9154 29.013 14.1596 31.2519 14.0988 35.5985C14.0771 37.148 14.0608 38.5573 14.0485 39.8016M14.0128 45.1174C14.0513 45.0716 14.0926 45.0274 14.1352 44.9857C14.6197 44.5116 17.6587 43.9126 23.8319 43.0856C27.3641 42.6124 31.7842 42.7352 29.7848 42.4004C27.7855 42.0655 19.2523 41.4493 14.7386 41.0938C14.4923 41.0744 14.2587 41.0559 14.0372 41.0381M14.0372 41.0381C14.0405 40.6465 14.0443 40.234 14.0485 39.8016M14.0372 41.0381C10.1998 40.7299 9.98732 40.6552 9.95231 40.5338C9.91528 40.4053 10.084 40.2268 12.9246 39.9176C13.2642 39.8806 13.6419 39.8418 14.0485 39.8016M14.0485 39.8016C15.41 39.667 17.0956 39.516 18.7605 39.3612M18.7605 39.3612C19.0313 39.336 19.3016 39.3107 19.5698 39.2853M18.7605 39.3612C18.7019 38.2999 18.6643 37.0076 18.6286 36.053M18.7605 39.3612C18.808 40.2208 18.8692 40.9289 18.9542 41.1831C19.0527 41.4773 19.2592 40.6524 19.5698 39.2853M19.5698 39.2853C21.2799 39.1238 22.9073 38.9603 24.0673 38.8086C24.6514 38.7323 25.1098 38.6596 25.4668 38.59M19.5698 39.2853C20.05 37.1712 20.779 33.7601 21.7414 31.1856C21.745 31.1758 21.7488 31.1667 21.7529 31.1582M25.4668 38.59C26.0102 38.4842 26.319 38.3858 26.4797 38.2936M25.4668 38.59C25.4119 38.4605 25.3538 38.3192 25.2922 38.1657C24.841 37.0429 24.0383 35.0261 23.3048 33.4289M25.4668 38.59C26.2085 40.3423 26.3479 39.948 26.4645 38.4913C26.4696 38.4274 26.4747 38.3614 26.4797 38.2936M26.4797 38.2936C26.7145 38.1589 26.6331 38.0372 26.5055 37.9245M26.4797 38.2936C26.4884 38.1758 26.497 38.0525 26.5055 37.9245M26.5055 37.9245C26.5034 37.9227 26.5012 37.9208 26.499 37.9189C25.5845 37.1225 24.7472 35.6281 23.3048 33.4289M26.5055 37.9245C26.6118 36.3247 26.7035 34.0127 26.8592 32.9444C26.9833 32.0936 28.6951 35.8966 30.483 40.5666C31.0482 42.043 31.23 41.577 31.2839 40.2399C31.3379 38.9028 31.3379 36.676 32.1727 37.4213C33.0075 38.1665 34.6772 41.9514 35.5776 43.7526C36.478 45.5538 36.5585 45.2567 36.2986 43.814C36.0387 42.3714 35.4358 39.7922 35.2622 38.612C35.0887 37.4317 35.3627 37.7285 35.9889 38.5936C36.6151 39.4586 37.5851 40.8828 38.1033 41.4874C38.6214 42.092 38.6582 41.8338 38.6595 41.4681C38.1296 39.0399 37.0704 36.5433 36.7523 36.0142C36.5598 35.7135 36.3042 35.3472 35.5566 34.7007M23.3048 33.4289C22.8537 32.741 22.3433 31.9842 21.7529 31.1582M23.3048 33.4289C22.5965 31.8864 21.9528 30.7351 21.7529 31.1582M21.7529 31.1582C21.6638 31.0336 21.573 30.9075 21.4802 30.7798C20.9925 30.1083 20.6697 30.0625 20.4218 30.2666C18.9569 31.473 18.7109 34.1873 18.6286 36.053M18.6286 36.053C18.5937 36.8428 18.5881 37.4806 18.5318 37.7874C18.4603 38.177 18.4675 35.1491 18.4743 35.0695C18.5452 34.2423 18.5855 34.9022 18.6286 36.053ZM28.8528 30.9554C28.833 30.9554 27.0709 30.9554 26.4645 30.8816M26.4645 30.8816C26.4309 30.8775 26.4008 30.8732 26.3747 30.8687C23.9775 30.4487 25.0058 30.3056 27.1377 30.3113M26.4645 30.8816C26.0332 31.0222 25.3433 30.962 24.5612 30.8704M26.4645 30.8816C26.4713 30.8795 26.4779 30.8772 26.4845 30.8749C26.7779 30.7732 26.9728 30.5535 27.1377 30.3113M27.1377 30.3113C28.4194 30.3146 30.0999 30.3718 31.6749 30.4548M27.1377 30.3113C27.385 29.948 27.5647 29.5338 27.9075 29.3903C28.769 29.0295 30.0659 29.5386 31.6749 30.4548M31.6749 30.4548C32.0872 30.4766 32.4922 30.5001 32.881 30.5249M31.6749 30.4548C32.3063 30.8144 32.9858 31.2367 33.7058 31.6938M32.881 30.5249C35.0169 30.6611 36.6611 30.8359 36.3127 30.9664C35.4454 31.2912 34.7788 31.6564 34.2151 32.0182M32.881 30.5249C32.2277 29.6572 31.6589 29.0913 30.988 28.833C29.5677 28.2861 24.9493 27.0144 21.7684 28.8833C19.647 30.1297 17.6417 31.2337 17.5995 33.2569C17.5822 34.0846 17.5611 34.867 17.5514 35.5632M32.881 30.5249C33.1389 30.8676 33.4101 31.2573 33.7058 31.6938M34.2151 32.0182C34.1464 32.0623 34.0792 32.1064 34.0133 32.1503M34.2151 32.0182C34.0432 31.9084 33.8734 31.8001 33.7058 31.6938M34.2151 32.0182C34.2933 32.0681 34.3718 32.1183 34.4508 32.1688C36.2757 33.3354 36.6547 37.0693 37.3325 38.3317C37.7787 39.163 38.0013 40.0859 38.022 40.9687M34.0133 32.1503C33.1656 32.7161 32.5422 33.2604 31.765 33.614M34.0133 32.1503C33.9077 31.9929 33.8054 31.8407 33.7058 31.6938M34.0133 32.1503C34.2082 32.441 34.414 32.7496 34.6336 33.0761C35.4037 34.2211 35.731 36.6135 35.6678 38.6922M31.765 33.614C31.7291 33.6303 31.6928 33.6463 31.6562 33.6618C31.3083 33.8091 30.9414 33.8454 30.566 33.8323M31.765 33.614C33.3912 33.9909 35.1774 34.3491 33.9624 34.5218C33.7551 34.5513 32.9988 34.5339 32.7218 34.9861C32.5961 35.1912 32.6088 35.6169 32.4935 35.6605M31.765 33.614C30.8375 33.399 29.962 33.1779 29.7252 32.9817C29.352 32.6724 29.6733 32.9847 30.566 33.8323M30.566 33.8323C30.3004 33.823 30.0305 33.7889 29.7602 33.752C27.7635 33.4789 25.7875 31.9276 24.5612 30.8704M30.566 33.8323C31.0482 34.29 31.6972 34.904 32.4935 35.6605M24.5612 30.8704C23.8931 30.2944 23.4475 29.865 23.3423 29.8689C23.1884 29.8746 23.4241 30.2088 23.9934 30.8024M24.5612 30.8704C24.3764 30.8487 24.1864 30.8253 23.9934 30.8024M23.9934 30.8024C24.8346 31.6795 26.4041 33.123 28.5206 34.9104C28.6269 35.0002 28.7325 35.0888 28.8374 35.1762M23.9934 30.8024C23.8199 30.7817 23.644 30.7615 23.4672 30.7432C22.2057 30.613 20.2317 30.0818 19.3 31.2812C18.6301 32.1436 18.323 33.6557 17.5514 35.5632M28.8374 35.1762C30.4485 36.5185 31.893 37.583 33.0786 38.3954M28.8374 35.1762C28.6537 35.1949 28.4707 35.223 28.2899 35.2618M28.8374 35.1762C30.2513 35.0315 31.7009 35.4339 32.4523 35.6608C32.4677 35.6654 32.4813 35.6651 32.4935 35.6605M33.0786 38.3954C34.1385 39.1217 34.9915 39.6464 35.5717 39.988M33.0786 38.3954C34.11 39.0551 34.9757 39.599 35.5739 39.9697M33.0786 38.3954C31.6981 37.5125 30.0206 36.4222 28.2899 35.2618M35.5717 39.988C35.7789 40.11 35.9513 40.2086 36.0859 40.2847M35.5717 39.988C35.5724 39.9819 35.5732 39.9758 35.5739 39.9697M35.5717 39.988C35.498 40.5852 35.3856 41.1156 35.2362 41.5283C34.103 44.6578 26.6227 41.5556 26.3003 41.1554C25.9512 40.7222 25.709 40.2297 25.4109 39.8274C25.0925 39.3977 24.3901 39.3149 23.8069 39.1407C23.5488 39.0637 23.509 38.7116 23.5604 38.4474C23.8535 36.9389 26.2682 35.9485 27.7373 35.4189C27.9179 35.3538 28.1027 35.302 28.2899 35.2618M36.0859 40.2847C36.2834 40.3964 36.3996 40.4596 36.425 40.477C36.5428 40.5575 36.4121 40.4835 36.0859 40.2847ZM36.0859 40.2847C35.9486 40.2011 35.7766 40.0953 35.5739 39.9697M35.5739 39.9697C35.6228 39.5685 35.6543 39.1375 35.6678 38.6922M28.2899 35.2618C28.052 35.1024 27.8132 34.9416 27.574 34.7799C25.2438 33.2044 24.5243 32.6692 23.8896 32.6187C23.0423 32.5514 22.2367 32.684 21.6474 32.893C20.5551 33.2803 19.9066 34.6846 18.9111 37.3121C18.7005 37.868 18.5846 38.1026 18.4104 38.2886C18.2363 38.4747 18.0098 38.606 17.8547 38.5092C17.5672 38.3299 17.5288 37.1783 17.5514 35.5632M17.5514 35.5632C17.5457 35.5772 17.54 35.5913 17.5343 35.6053C16.7172 37.6134 15.3955 42.7691 16.7147 45.1004C16.8353 45.3135 17.0062 45.5197 17.2873 45.6414C17.8959 45.9049 18.8788 46.2425 19.8699 45.9853C21.04 45.6815 22.2136 44.5913 23.779 44.212C26.8557 43.4665 31.1436 43.6775 32.8618 44.3973C33.0513 44.4767 33.2387 44.5556 33.4239 44.6336M35.6678 38.6922C34.4454 37.518 33.3784 36.5012 32.4935 35.6605M35.6678 38.6922C36.1043 39.1115 36.5607 39.5508 37.0356 40.0094C37.4198 40.3804 37.7451 40.6965 38.022 40.9687M38.022 40.9687C39.2254 42.1515 39.514 42.5042 39.7452 42.9219C40.1006 43.564 40.1262 44.6842 39.9279 45.743C39.6369 47.2965 36.9405 46.1161 33.4239 44.6336M38.022 40.9687C38.0372 41.6169 37.9435 42.2435 37.7496 42.7961C37.5134 43.4691 35.7524 44.0846 33.4239 44.6336M33.4239 44.6336C31.7 45.0401 29.665 45.4102 27.7076 45.7402C21.8159 46.7337 19.6136 46.2219 18.6907 46.8798C18.4411 47.0578 18.5886 47.5973 18.736 47.9939C18.8835 48.3904 19.1784 48.7421 19.4647 48.8527C20.5398 48.5582 21.3181 48.2508 24.4862 48.1341C27.3704 48.0839 32.8465 48.0522 38.5481 48.0483M22.5814 21.4535C22.4373 21.3689 22.145 21.1175 21.788 20.7284M21.788 20.7284C21.4589 20.3698 21.0747 19.8941 20.7007 19.3242C20.055 18.3404 19.8338 16.2295 19.7467 13.5783C19.7449 13.5225 19.7461 13.4676 19.7503 13.4138M21.788 20.7284C21.3471 20.5675 20.9163 20.3355 20.5182 20.0055C19.9108 19.5006 19.0736 19.1058 18.7666 18.1316C18.5226 17.3574 18.4377 16.4804 18.697 15.8416C18.9389 15.2458 19.322 14.2834 19.7503 13.4138M21.788 20.7284C21.9526 20.7884 22.1186 20.8386 22.2848 20.8802M19.7503 13.4138C19.7663 13.2099 19.8249 13.0199 19.92 12.8393M19.7503 13.4138C19.7919 13.3294 19.8339 13.2459 19.8763 13.1636M19.92 12.8393C20.0415 12.6088 20.2227 12.3936 20.451 12.1842M19.92 12.8393C19.902 12.9445 19.8873 13.0527 19.8763 13.1636M19.92 12.8393C19.9618 12.5956 20.0219 12.3679 20.098 12.1607C20.4456 11.2141 21.128 10.7328 22.2385 10.743M20.451 12.1842C20.8377 11.8297 21.3599 11.4919 21.957 11.1247C22.1859 10.9839 22.4379 10.868 22.7061 10.7734M20.451 12.1842C20.5803 11.9991 20.7091 11.8416 20.8352 11.7227C21.0657 11.5054 21.5795 11.1038 22.2385 10.743M20.451 12.1842C20.2579 12.461 20.0638 12.7996 19.8763 13.1636M22.7061 10.7734C23.7818 10.3938 25.1189 10.3552 26.2768 10.4195M22.7061 10.7734C22.5425 10.7544 22.3866 10.7443 22.2385 10.743M22.7061 10.7734C22.7186 10.7748 22.7311 10.7763 22.7437 10.7779C26.2405 11.2079 28.4787 13.3361 29.0322 14.5639C29.4294 15.4449 29.4502 16.5717 29.3762 17.7287C29.3473 18.1805 29.1543 18.3364 28.9839 18.4606C27.9754 19.1959 25.0844 19.1757 23.7236 18.7831C22.9624 18.5634 22.4828 17.8686 22.1102 17.0302M26.2768 10.4195C26.8565 10.4516 27.3913 10.5096 27.8259 10.5634C28.6975 10.6714 29.7692 12.5915 31.0041 15.0349C31.5725 16.1596 31.5417 17.2773 31.5369 18.0274C31.5337 18.5265 31.062 19.0394 30.4533 19.5018M26.2768 10.4195C28.1728 11.5478 29.4279 12.3983 29.8685 13.5091C30.415 14.8869 31.1194 15.9814 30.7173 18.4216C30.6507 18.8255 30.5699 19.1858 30.4533 19.5018M26.2768 10.4195C26.2598 10.4093 26.2427 10.3991 26.2255 10.389C24.9354 9.62238 23.3721 10.1223 22.2385 10.743M30.4533 19.5018C30.06 19.8006 29.6094 20.0784 29.1911 20.3177C27.8938 21.06 26.1098 20.8273 24.0625 20.1641C23.0296 19.8295 21.9481 18.7017 21.1421 17.4764M30.4533 19.5018C30.2528 20.0452 29.9462 20.4576 29.4235 20.736C27.8473 21.5755 26.9496 22.22 25.4252 21.929C24.3788 21.7293 23.0343 21.3621 22.2848 20.8802M21.1421 17.4764C20.9186 17.1368 20.7164 16.7897 20.5422 16.4499C19.9596 15.3135 19.7793 14.1372 19.8763 13.1636M21.1421 17.4764C21.2256 17.3663 21.3306 17.2804 21.4647 17.2338C21.6595 17.1661 21.8775 17.0985 22.1102 17.0302M21.1421 17.4764C20.9988 17.6653 20.9184 17.9253 20.8617 18.1801C20.634 19.2018 21.3577 19.9927 21.9332 20.5989C22.0258 20.6964 22.145 20.7903 22.2848 20.8802M22.1102 17.0302C21.8028 16.3387 21.5682 15.5496 21.3085 14.849C21.0204 14.0722 21.2794 13.4046 21.4636 13.0494C21.67 12.6513 22.0446 12.396 22.3861 12.2117C23.2722 11.7335 24.6254 12.1492 26.0782 12.8951C27.1638 13.4525 27.8079 14.0868 28.036 14.3992C28.2643 14.7119 28.2522 15.1709 28.1779 15.6584C28.0858 16.2615 27.6589 16.6668 27.334 16.9428C26.3706 17.761 24.4155 17.7935 23.374 17.5402C23.0438 17.4599 22.822 17.2153 22.6709 16.8703M22.1102 17.0302C22.2897 16.9774 22.478 16.9242 22.6709 16.8703M22.6709 16.8703C22.4381 16.3385 22.3734 15.5681 22.3392 14.7927C22.3269 14.5129 22.5194 14.379 22.6794 14.2751C23.4045 13.8042 24.3285 13.9365 24.7932 14.0316C25.1856 14.1118 25.174 15.1032 25.174 15.8584C25.174 15.9739 25.3035 15.2819 25.6121 15.0103C25.766 14.8748 26.0159 14.8906 26.1201 14.9744C26.2243 15.0583 26.2011 15.2473 26.1075 15.4141C25.7589 16.0353 24.0878 16.474 22.6709 16.8703ZM22.2848 20.8802C22.3721 20.9021 22.4594 20.9216 22.5466 20.9389C22.8973 21.0036 23.2402 21.0561 23.5936 21.1103" stroke="var(--stroke-0, #D8D3CA)" stroke-width="2" stroke-linecap="round"/>
</g>
</svg>
